<svg width="33" height="33" viewBox="0 0 33 33" fill="none" xmlns="http://www.w3.org/2000/svg">
<g clip-path="url(#clip0_241_178)">
<path d="M2.54 0H0V9.53H2.54V0Z" fill="#FFF7F7"/>
<path d="M7.61999 0H5.07999V9.53H7.61999V0Z" fill="#FFF7F7"/>
<path d="M2.54 11.8501H0V21.3801H2.54V11.8501Z" fill="#FFF7F7"/>
<path d="M17.31 11.8501H14.77V21.3801H17.31V11.8501Z" fill="#FFF7F7"/>
<path d="M17.31 23.7H14.77V33H17.31V23.7Z" fill="#FFF7F7"/>
<path d="M12.23 23.7H9.69V33H12.23V23.7Z" fill="#FFF7F7"/>
<path d="M8.60001 11.8501C6.47001 11.8501 4.73001 13.9801 4.73001 16.6101C4.73001 19.2401 6.46001 21.3701 8.60001 21.3701C10.74 21.3701 12.47 19.2401 12.47 16.6101C12.47 13.9801 10.74 11.8501 8.60001 11.8501ZM8.54001 18.8201C7.84001 18.8201 7.27001 17.8601 7.27001 16.6701C7.27001 15.4801 7.84001 14.5201 8.54001 14.5201C9.24001 14.5201 9.81001 15.4801 9.81001 16.6701C9.81001 17.8601 9.24001 18.8201 8.54001 18.8201Z" fill="#FFF7F7"/>
<path d="M3.87 23.47C1.74 23.47 0 25.6 0 28.23C0 30.86 1.73 32.99 3.87 32.99C6.01 32.99 7.74 30.86 7.74 28.23C7.74 25.6 6.01 23.47 3.87 23.47ZM3.81 30.44C3.11 30.44 2.54 29.48 2.54 28.29C2.54 27.1 3.11 26.14 3.81 26.14C4.51 26.14 5.08 27.1 5.08 28.29C5.08 29.48 4.51 30.44 3.81 30.44Z" fill="#FFF7F7"/>
<path d="M13.56 0C11.43 0 9.69 2.13 9.69 4.76C9.69 7.39 11.42 9.52 13.56 9.52C15.7 9.52 17.43 7.39 17.43 4.76C17.43 2.13 15.69 0 13.56 0ZM13.5 6.97C12.8 6.97 12.23 6.01 12.23 4.82C12.23 3.63 12.8 2.67 13.5 2.67C14.2 2.67 14.77 3.63 14.77 4.82C14.77 6.01 14.2 6.97 13.5 6.97Z" fill="#FFF7F7"/>
<path d="M33 9.29999C33 10.58 31.97 11.62 30.69 11.62C29.94 11.62 29.27 11.26 28.84 10.69H23.53V6.03999H19.95V3.48999H26.07V8.13999H28.69C29.09 7.44999 29.83 6.97999 30.69 6.97999C31.96 6.97999 33 8.01999 33 9.29999Z" fill="#FFF7F7"/>
<path d="M33 16.62C33 17.9 31.97 18.94 30.69 18.94C29.88 18.94 29.17 18.53 28.76 17.89H19.96V15.33H28.76C29.17 14.7 29.88 14.28 30.69 14.28C31.96 14.28 33 15.32 33 16.6V16.62Z" fill="#FFF7F7"/>
<path d="M33 23.82C33 25.1 31.97 26.14 30.69 26.14C29.88 26.14 29.17 25.73 28.76 25.09H26.07V29.51H19.95V26.95H23.53V22.53H28.76C29.17 21.9 29.88 21.48 30.69 21.48C31.96 21.48 33 22.52 33 23.8V23.82Z" fill="#FFF7F7"/>
</g>
<defs>
<clipPath id="clip0_241_178">
<rect width="33" height="33" fill="white"/>
</clipPath>
</defs>
</svg>
