<svg width="33" height="33" viewBox="0 0 33 33" fill="none" xmlns="http://www.w3.org/2000/svg">
<g clip-path="url(#clip0_303_19)">
<path d="M23.23 25.5901V31.5701C23.23 32.3601 22.58 33.0001 21.78 33.0001H11.22C10.42 33.0001 9.76999 32.3601 9.76999 31.5701V23.1401C9.76999 22.5601 10.24 22.0901 10.83 22.0901H14.68L16.87 24.2601V24.1601H21.77C22.57 24.1601 23.22 24.8001 23.22 25.5901H23.23Z" fill="#FFF6F6"/>
<path d="M16.88 24.1499V24.2499L16.78 24.1499H16.88Z" fill="#FFF6F6"/>
<path d="M16.88 24.1499V24.2499L16.78 24.1499H16.88Z" fill="#FFF6F6"/>
<path d="M16.88 24.1499V24.2499L16.78 24.1499H16.88Z" fill="#FFF6F6"/>
<path d="M4.34 5.38V6.7H9.77V10.35C9.77 11.12 9.14 11.74 8.36 11.74H1.41C0.63 11.74 0 11.12 0 10.35V1.39C0 0.62 0.63 0 1.41 0H6.17C7.96 0 9.44 1.29 9.72 2.98H4.34V4.3H9.77V5.38H4.34Z" fill="#FFF6F6"/>
<path d="M15.96 5.38V6.7H21.39V10.35C21.39 11.12 20.76 11.74 19.98 11.74H13.02C12.24 11.74 11.61 11.12 11.61 10.35V1.39C11.61 0.62 12.24 0 13.02 0H17.79C19.58 0 21.06 1.29 21.34 2.98H15.96V4.3H21.39V5.38H15.96Z" fill="#FFF6F6"/>
<path d="M27.57 5.38V6.7H33V10.35C33 11.12 32.37 11.74 31.59 11.74H24.63C23.85 11.74 23.22 11.12 23.22 10.35V1.39C23.22 0.62 23.85 0 24.63 0H29.4C31.19 0 32.67 1.29 32.95 2.98H27.57V4.3H33V5.38H27.57Z" fill="#FFF6F6"/>
<path d="M17.62 13.1499H15.45V16.8399H17.62V13.1499Z" fill="#FFF6F6"/>
<path d="M16.54 20.3499C15.92 18.6999 14.87 16.6599 13.75 15.3899L16.54 16.3899L19.33 15.3899C18.21 16.6599 17.16 18.6999 16.54 20.3499Z" fill="#FFF6F6"/>
<path d="M6.44002 17.3701L4.58002 14.1701L6.46002 13.0901L8.32002 16.2901L6.44002 17.3701Z" fill="#FFF6F6"/>
<path d="M9.15001 19.8602C7.78001 18.7402 5.84001 17.4902 4.23001 16.9402L7.15001 16.4202L9.06001 14.1702C8.73001 15.8202 8.85001 18.1102 9.15001 19.8502V19.8602Z" fill="#FFF6F6"/>
<path d="M26.48 17.3701L24.59 16.2901L26.46 13.0901L28.34 14.1701L26.48 17.3701Z" fill="#FFF6F6"/>
<path d="M23.77 19.8602C24.07 18.1302 24.19 15.8302 23.86 14.1802L25.77 16.4302L28.69 16.9502C27.08 17.5002 25.14 18.7502 23.77 19.8702V19.8602Z" fill="#FFF6F6"/>
</g>
<defs>
<clipPath id="clip0_303_19">
<rect width="33" height="33" fill="white"/>
</clipPath>
</defs>
</svg>
