<svg width="33" height="33" viewBox="0 0 33 33" fill="none" xmlns="http://www.w3.org/2000/svg">
<g clip-path="url(#clip0_303_20)">
<path d="M33 16.52C33 18.65 31.62 20.5 29.6 21.45C29.59 21.45 29.57 21.46 29.56 21.47C28.87 21.74 28.13 21.93 27.35 22.04V17.22L16.56 14.89L5.77 17.22V21.78C2.43 20.84 0.0100021 18.14 0.0100021 14.95C0.0100021 11.05 3.61 7.88 8.09 7.77C8.12 7.57 8.16 7.38 8.2 7.19C9.12 3.09 13.31 0 18.33 0C23.35 0 27.76 3.26 28.54 7.51C28.62 7.96 28.67 8.43 28.67 8.91C28.67 9.68 28.56 10.44 28.34 11.15C31.04 11.83 33 13.98 33 16.52Z" fill="#FFF6F6"/>
<path d="M16.48 17.72L8.6 19.42V26.21C8.6 29.96 12.13 33 16.48 33C20.83 33 24.36 29.96 24.36 26.21V19.42L16.48 17.72ZM20.83 24.05L16.53 27.61C16.3 27.8 15.99 27.9 15.69 27.9C15.39 27.9 15.09 27.81 14.86 27.62L12.27 25.53C11.78 25.13 11.75 24.47 12.21 24.05C12.67 23.63 13.44 23.6 13.93 24L15.68 25.41L19.15 22.54C19.63 22.14 20.4 22.15 20.87 22.57C21.34 22.99 21.32 23.65 20.84 24.05H20.83Z" fill="#FFF6F6"/>
</g>
<defs>
<clipPath id="clip0_303_20">
<rect width="33" height="33" fill="white"/>
</clipPath>
</defs>
</svg>
