<svg width="33" height="33" viewBox="0 0 33 33" fill="none" xmlns="http://www.w3.org/2000/svg">
<g clip-path="url(#clip0_303_21)">
<path d="M19.94 9.55L23.06 6.44C22.64 5.79 22.4 5.02 22.4 4.19C22.4 1.88 24.28 0 26.6 0C28.92 0 30.8 1.88 30.8 4.19C30.8 6.5 28.92 8.38 26.6 8.38C25.77 8.38 24.99 8.14 24.34 7.72L21.22 10.83L19.93 9.55H19.94Z" fill="#FFF6F6"/>
<path d="M15.29 22.81C18.9682 22.81 21.95 19.8327 21.95 16.16C21.95 12.4873 18.9682 9.51001 15.29 9.51001C11.6118 9.51001 8.63 12.4873 8.63 16.16C8.63 19.8327 11.6118 22.81 15.29 22.81Z" fill="#FFF6F6"/>
<path d="M2.72 6.31005C2.72 4.37005 4.3 2.80005 6.24 2.80005C8.18 2.80005 9.76 4.37005 9.76 6.31005C9.76 6.95005 9.59 7.55005 9.29 8.07005L10.67 9.45005L9.38 10.73L8 9.35005C7.48 9.65005 6.88 9.82005 6.24 9.82005C4.3 9.82005 2.72 8.25005 2.72 6.31005Z" fill="#FFF6F6"/>
<path d="M9.88 22.1599L7.75 24.2899C8.17 24.9399 8.41 25.7099 8.41 26.5399C8.41 28.8499 6.53 30.7299 4.21 30.7299C1.89 30.7299 0 28.8599 0 26.5399C0 24.2199 1.88 22.3499 4.2 22.3499C5.03 22.3499 5.81 22.5899 6.46 23.0099L8.59 20.8799L9.88 22.1599Z" fill="#FFF6F6"/>
<path d="M33 27.2199C33 30.4099 30.41 32.9999 27.21 32.9999C24.01 32.9999 21.42 30.4099 21.42 27.2199C21.42 25.9499 21.83 24.7799 22.52 23.8299L20.85 22.1599L22.14 20.8799L23.81 22.5499C24.76 21.8599 25.94 21.4499 27.21 21.4499C30.41 21.4499 33 24.0399 33 27.2299V27.2199Z" fill="#FFF6F6"/>
</g>
<defs>
<clipPath id="clip0_303_21">
<rect width="33" height="33" fill="white"/>
</clipPath>
</defs>
</svg>
