<svg width="33" height="33" viewBox="0 0 33 33" fill="none" xmlns="http://www.w3.org/2000/svg">
<g clip-path="url(#clip0_244_221)">
<path d="M16.5 0C7.39 0 0 7.39 0 16.5C0 25.61 7.39 33 16.5 33C25.61 33 33 25.61 33 16.5C33 7.39 25.61 0 16.5 0ZM16.5 29.29C9.44 29.29 3.71 23.56 3.71 16.5C3.71 9.44 9.44 3.71 16.5 3.71C23.56 3.71 29.29 9.44 29.29 16.5C29.29 23.56 23.56 29.29 16.5 29.29Z" fill="#BD0100"/>
<path d="M16.5 5.93018C10.66 5.93018 5.92999 10.6602 5.92999 16.5002C5.92999 22.3402 10.66 27.0702 16.5 27.0702C22.34 27.0702 27.07 22.3402 27.07 16.5002C27.07 10.6602 22.34 5.93018 16.5 5.93018ZM16.59 15.6602C18.68 15.6602 20.39 17.3602 20.39 19.4602C20.39 21.3002 19.08 22.8302 17.35 23.1802V24.0902H15.68V23.1402C14.02 22.7302 12.79 21.2302 12.79 19.4502H14.46C14.46 20.6202 15.41 21.5802 16.59 21.5802C17.77 21.5802 18.72 20.6202 18.72 19.4502C18.72 18.2802 17.77 17.3202 16.59 17.3202C14.5 17.3202 12.79 15.6202 12.79 13.5202C12.79 11.6802 14.1 10.1502 15.83 9.80018V8.89018H17.5V9.84018C19.16 10.2502 20.39 11.7502 20.39 13.5302H18.72C18.72 12.3602 17.77 11.4002 16.59 11.4002C15.41 11.4002 14.46 12.3602 14.46 13.5302C14.46 14.7002 15.41 15.6602 16.59 15.6602Z" fill="#BD0100"/>
</g>
<defs>
<clipPath id="clip0_244_221">
<rect width="33" height="33" fill="white"/>
</clipPath>
</defs>
</svg>
