<svg width="33" height="33" viewBox="0 0 33 33" fill="none" xmlns="http://www.w3.org/2000/svg">
<g clip-path="url(#clip0_244_214)">
<path d="M18.71 21.2401C17.95 21.2401 17.19 20.9701 16.59 20.4301L9.99 14.4501C8.74 13.3201 8.68001 11.4201 9.85001 10.2101C11.02 9.00007 12.98 8.94007 14.23 10.0701L18.69 14.1101L27.52 5.88007C28.75 4.73007 30.72 4.77007 31.9 5.96007C33.09 7.15007 33.05 9.05007 31.81 10.2001L20.85 20.4001C20.25 20.9601 19.48 21.2401 18.7 21.2401H18.71Z" fill="#BD0100"/>
<path d="M27 21.07V27.2H6V5.81H20.7L26.7 0H5.11C2.29 0 0 2.22 0 4.95V28.05C0 30.78 2.29 33 5.11 33H27.89C30.71 33 33 30.78 33 28.05V15.26L27 21.07Z" fill="#BD0100"/>
</g>
<defs>
<clipPath id="clip0_244_214">
<rect width="33" height="33" fill="white"/>
</clipPath>
</defs>
</svg>
