<svg width="33" height="33" viewBox="0 0 33 33" fill="none" xmlns="http://www.w3.org/2000/svg">
<g opacity="0.75" clip-path="url(#clip0_370_2)">
<path d="M16.5 0C7.39 0 0 7.39 0 16.5C0 25.61 7.39 33 16.5 33C25.61 33 33 25.61 33 16.5C33 7.39 25.61 0 16.5 0ZM26.1 14.04L16.5 23.27C15.97 23.78 15.3 24.03 14.62 24.03C13.94 24.03 13.29 23.79 12.76 23.3L6.97 17.88C5.88 16.85 5.82 15.14 6.84 14.04C7.87 12.95 9.58 12.89 10.68 13.91L14.59 17.57L22.34 10.12C23.42 9.08 25.14 9.12 26.18 10.2C27.22 11.28 27.19 13 26.11 14.04H26.1Z" fill="#F1EFEF"/>
</g>
<defs>
<clipPath id="clip0_370_2">
<rect width="33" height="33" fill="white"/>
</clipPath>
</defs>
</svg>
