<svg width="33" height="33" viewBox="0 0 33 33" fill="none" xmlns="http://www.w3.org/2000/svg">
<path d="M16.5 0C7.39 0 0 7.38 0 16.5C0 25.62 7.39 33 16.5 33C25.61 33 33 25.61 33 16.5C33 7.39 25.61 0 16.5 0ZM24.46 19.58C25.72 20.78 25.76 22.78 24.55 24.03C23.93 24.67 23.11 24.99 22.28 24.99C21.45 24.99 20.71 24.7 20.1 24.11L16.71 20.85L13.32 24.11C12.71 24.7 11.93 24.99 11.14 24.99C10.31 24.99 9.49 24.66 8.87 24.03C7.66 22.77 7.7 20.78 8.95 19.58L12.16 16.5L8.95 13.42C7.7 12.21 7.66 10.22 8.87 8.97C10.07 7.72 12.07 7.68 13.32 8.89L16.71 12.14L20.1 8.89C21.35 7.68 23.34 7.72 24.55 8.97C25.76 10.23 25.72 12.21 24.46 13.42L21.26 16.5L24.46 19.58Z" fill="#2A293A"/>
</svg>
