<svg width="33" height="33" viewBox="0 0 33 33" fill="none" xmlns="http://www.w3.org/2000/svg">
<g clip-path="url(#clip0_423_7)">
<path fill-rule="evenodd" clip-rule="evenodd" d="M33 16.5C33 25.6127 25.6127 33 16.5 33C7.3873 33 0 25.6127 0 16.5C0 7.3873 7.3873 0 16.5 0C25.6127 0 33 7.3873 33 16.5ZM17.62 22.36H17.61H15.33V17.48C15.33 16.85 15.84 16.34 16.47 16.34C18.07 16.34 19.37 15.04 19.37 13.44C19.37 11.84 18.07 10.54 16.47 10.54C14.87 10.54 13.57 11.84 13.57 13.44H11.29C11.29 10.58 13.62 8.25 16.48 8.25C19.34 8.25 21.67 10.58 21.67 13.44C21.67 15.91 19.94 17.98 17.62 18.5V22.36ZM17.61 23.9102H15.33V25.9802H17.61V23.9102Z" fill="#736969"/>
</g>
<defs>
<clipPath id="clip0_423_7">
<rect width="33" height="33" fill="white"/>
</clipPath>
</defs>
</svg>
